<svg width="789" height="438" viewBox="0 0 789 438" fill="none" xmlns="http://www.w3.org/2000/svg">
<g clip-path="url(#clip0_33_91)">
<path d="M673.195 278.08C673.908 277.907 674.573 277.583 675.145 277.13C675.717 276.677 676.18 276.107 676.503 275.459C676.826 274.811 677.001 274.102 677.015 273.38C677.029 272.659 676.881 271.943 676.583 271.284L689.615 259.303L680.599 257.173L669.607 268.877C668.513 269.442 667.669 270.382 667.233 271.519C666.797 272.656 666.801 273.911 667.243 275.045C667.685 276.179 668.536 277.115 669.633 277.674C670.73 278.233 671.997 278.378 673.195 278.08Z" fill="#FFB6B6"/>
<path d="M679.927 268.429L673.85 260.005L696.676 236.796L701.977 200.211C702.239 198.403 702.902 196.673 703.921 195.145C704.939 193.618 706.287 192.329 707.869 191.371C709.451 190.413 711.228 189.809 713.075 189.602C714.921 189.395 716.791 189.59 718.551 190.174C721.73 191.231 724.353 193.485 725.844 196.44C727.335 199.396 727.572 202.813 726.503 205.94L712.98 245.383L679.927 268.429Z" fill="#E4E4E4"/>
<path d="M722.787 424.312H716.041L712.831 398.73L722.788 398.731L722.787 424.312Z" fill="#FFB6B6"/>
<path d="M726.416 436.904H721.629L720.775 432.461L718.586 436.904H705.89C705.281 436.904 704.689 436.713 704.198 436.359C703.708 436.004 703.346 435.505 703.165 434.934C702.984 434.362 702.993 433.749 703.192 433.184C703.39 432.618 703.767 432.13 704.268 431.79L714.407 424.906V420.414L725.072 421.04L726.416 436.904Z" fill="#2F2E41"/>
<path d="M764.408 417.563L758.482 420.733L743.226 399.772L751.971 395.093L764.408 417.563Z" fill="#FFB6B6"/>
<path d="M773.718 426.919L769.514 429.168L766.603 425.667L766.841 430.598L755.689 436.564C755.154 436.85 754.54 436.96 753.938 436.879C753.335 436.798 752.774 436.53 752.337 436.113C751.9 435.696 751.61 435.153 751.51 434.563C751.409 433.973 751.503 433.367 751.777 432.833L757.336 422.023L755.152 418.077L764.824 413.616L773.718 426.919Z" fill="#2F2E41"/>
<path d="M725.629 415.202H711.687V366.397L703.056 334.578C696.861 311.823 695.215 288.103 698.208 264.732L698.22 264.636L698.295 264.574C698.517 264.391 720.608 246.435 734.581 260.171C744 269.43 735.15 302.724 734.655 304.552V361.947L725.629 415.202Z" fill="#2F2E41"/>
<path d="M725.595 185.076L725.521 185.004L707.744 185.27L698.254 207.169C689.468 220.584 697.868 228.214 698.459 229.422L696.778 245.883L695.697 256.502L693.959 273.599L734.701 260.515L730.169 242.668L735.406 216.926C736.569 211.233 736.281 205.347 734.57 199.79C732.858 194.233 729.775 189.178 725.595 185.076Z" fill="#E4E4E4"/>
<path d="M717.312 366.649L745.953 406.253L756.94 398.573L733.02 350.25L717.312 366.649Z" fill="#2F2E41"/>
<path d="M714.972 180.82C724.036 180.82 731.383 173.597 731.383 164.686C731.383 155.776 724.036 148.553 714.972 148.553C705.908 148.553 698.56 155.776 698.56 164.686C698.56 173.597 705.908 180.82 714.972 180.82Z" fill="#FFB6B6"/>
<path opacity="0.1" d="M730.8 227.102L712.9 247.406L695.697 256.502L696.779 245.883L706.909 240.291L730.8 227.102Z" fill="black"/>
<path d="M703.477 194.922L701.937 188.288C701.431 186.068 701.382 183.771 701.793 181.533C702.204 179.294 703.067 177.159 704.33 175.253C705.491 173.456 706.138 171.385 706.203 169.257C706.268 167.129 705.749 165.024 704.701 163.161C703.927 161.656 702.751 160.385 701.299 159.486C699.847 158.587 698.174 158.093 696.459 158.057H696.049V157.655C696.049 151.869 700.635 147.786 704.899 147.552C705.053 146.348 705.921 145.269 707.433 144.412C711.043 142.366 718.023 141.922 723.297 144.65C723.395 143.768 723.733 142.928 724.276 142.22C724.82 141.512 725.548 140.962 726.384 140.628C727.25 140.331 728.184 140.279 729.079 140.475C729.156 139.025 729.765 137.651 730.794 136.609C732.25 135.222 734.586 134.695 737.203 135.16C740.798 135.801 744.341 138.052 747.18 141.499C749.696 144.555 751.444 148.157 753.134 151.64C754.795 155.065 756.513 158.607 759.004 161.606C761.733 164.891 765.113 167.02 768.524 167.6C772.501 168.277 776.583 166.667 778.451 163.686L778.822 163.095L779.16 163.705C781.259 167.496 780.4 172.705 777.118 176.091C774.175 179.128 769.557 180.675 764.768 180.225C760.713 179.846 756.623 178.152 752.612 175.191C748.628 172.25 746.164 168.999 745.289 165.528C745.044 164.454 744.868 163.366 744.762 162.27C744.491 159.975 744.235 157.807 742.799 156.211C741.508 154.776 739.51 154.155 737.739 153.685L737.391 153.593C737.328 154.24 737.122 154.865 736.787 155.425C736.453 155.985 735.998 156.467 735.455 156.836C735.129 157.029 734.771 157.165 734.398 157.237C736.451 165.363 735.607 171.584 731.886 175.732C725.604 182.734 713.533 181.294 713.022 181.23L712.682 181.186L712.665 180.85C712.619 179.947 712.507 179.049 712.329 178.162C710.601 182.257 704.785 193.086 704.007 194.178L703.477 194.922Z" fill="#2F2E41"/>
<path d="M123.907 220.972C123.427 221.593 122.815 222.102 122.113 222.465C121.411 222.828 120.637 223.035 119.845 223.071C119.053 223.108 118.262 222.974 117.529 222.677C116.795 222.381 116.137 221.931 115.6 221.357L97.9248 228.914L99.6464 219.215L116.167 213.525C117.207 212.702 118.517 212.283 119.851 212.346C121.184 212.409 122.448 212.951 123.402 213.869C124.356 214.787 124.934 216.017 125.027 217.326C125.12 218.635 124.722 219.933 123.907 220.972V220.972Z" fill="#A0616A"/>
<path d="M112.113 224.001L71.0598 241.977L70.9717 241.946L24.1819 225.555C20.6966 223.765 18.0395 220.732 16.7546 217.078C15.4697 213.425 15.6541 209.426 17.2702 205.902C18.1659 203.955 19.4711 202.216 21.0996 200.8C22.7282 199.385 24.6433 198.324 26.7188 197.689C28.7944 197.053 30.9833 196.857 33.1416 197.113C35.2998 197.369 37.3785 198.071 39.2407 199.174L74.061 219.794L107.826 215.492L112.113 224.001Z" fill="#3F3D56"/>
<path d="M129.312 105.64C113.792 71.8934 114.365 29.118 138.45 0.641113C146.508 40.1289 168.515 75.542 200.576 100.615C212.976 110.24 227.788 119.677 231.175 134.848C233.283 144.288 230.296 154.273 225.13 162.496C219.965 170.719 212.765 177.483 205.646 184.149L204.848 186.431C173.874 165.349 144.831 139.387 129.312 105.64Z" fill="#F0F0F0"/>
<path d="M139.121 1.05285C133.577 30.8914 137.695 62.664 151.168 90.0017C154.081 95.912 157.559 101.658 162.216 106.412C166.791 111.011 172.536 114.322 178.853 116.001C184.711 117.682 190.901 118.735 196.241 121.787C201.87 125.004 205.363 130.402 206.724 136.592C208.389 144.165 207.187 151.876 205.744 159.375C204.142 167.702 202.345 176.327 204.666 184.697C204.947 185.712 203.329 186.081 203.049 185.069C199.011 170.505 206.862 156.141 205.764 141.499C205.252 134.666 202.642 127.944 196.683 123.985C191.472 120.524 185.09 119.433 179.143 117.78C172.9 116.046 167.292 113.396 162.521 109.001C157.64 104.505 153.926 98.8798 150.872 93.0686C144.047 79.8401 139.381 65.6391 137.043 50.9856C134.281 34.2762 134.447 17.2255 137.534 0.571096C137.725 -0.459622 139.311 0.0288553 139.121 1.05285Z" fill="white"/>
<path d="M146.312 81.3427C141.284 82.9268 135.847 82.7023 130.972 80.7094C126.097 78.7165 122.102 75.0849 119.699 70.4632C119.216 69.5264 120.674 68.7447 121.158 69.6828C123.387 73.9905 127.109 77.373 131.653 79.2197C136.196 81.0663 141.262 81.2555 145.935 79.7532C146.95 79.4279 147.322 81.0192 146.312 81.3427L146.312 81.3427Z" fill="white"/>
<path d="M175.768 115.533C180.792 106.142 182.031 95.2352 179.239 84.9865C178.961 83.9713 180.578 83.6014 180.856 84.6153C183.742 95.2857 182.429 106.634 177.179 116.394C176.677 117.324 175.27 116.458 175.768 115.533Z" fill="white"/>
<path d="M136.416 34.8064C138.491 34.5919 140.48 33.8742 142.203 32.7175C143.927 31.5608 145.331 30.0015 146.29 28.1795C146.779 27.2437 148.186 28.1113 147.7 29.041C146.631 31.0491 145.078 32.7694 143.177 34.0515C141.276 35.3336 139.084 36.1385 136.794 36.3959C136.58 36.4379 136.358 36.3984 136.172 36.2852C135.987 36.1721 135.853 35.9938 135.796 35.7867C135.747 35.576 135.785 35.3548 135.901 35.1713C136.017 34.9877 136.202 34.8566 136.416 34.8064Z" fill="white"/>
<path d="M266.004 0.97168C265.716 1.56453 265.427 2.15737 265.146 2.76233C261.311 10.7525 258.144 19.0356 255.674 27.53C255.472 28.1838 255.278 28.8493 255.096 29.5074C249.368 50.0348 247.566 71.4292 249.782 92.6031C250.672 101.028 252.213 109.374 254.391 117.569C257.399 128.887 261.577 140.922 260.634 152.223C260.549 153.403 260.39 154.577 260.157 155.738L207.741 187.212C207.585 187.224 207.436 187.249 207.28 187.262L205.245 188.613C205.103 188.198 204.964 187.765 204.822 187.35C204.738 187.109 204.667 186.862 204.583 186.622C204.531 186.459 204.479 186.296 204.423 186.153C204.406 186.099 204.389 186.044 204.378 186.002C204.322 185.858 204.285 185.719 204.236 185.587C203.455 183.167 202.689 180.737 201.94 178.297C201.932 178.286 201.932 178.286 201.937 178.267C196.274 159.664 192.142 140.434 191.11 121.198C191.079 120.619 191.04 120.029 191.034 119.436C190.617 110.763 190.923 102.071 191.947 93.4469C192.524 88.7263 193.343 84.0375 194.401 79.3984C197.16 67.4167 201.819 55.9362 208.207 45.3778C220.944 24.3314 240.386 7.52399 264.181 1.42051C264.79 1.26473 265.388 1.1156 266.004 0.97168Z" fill="#F0F0F0"/>
<path d="M266.292 1.69646C243.592 22.2401 227.421 50.046 221.436 79.8479C220.142 86.291 219.399 92.9377 220.206 99.4893C221.043 105.869 223.602 111.913 227.617 116.992C231.265 121.802 235.562 126.306 237.957 131.904C240.481 137.804 239.965 144.181 237.26 149.929C233.951 156.962 228.269 162.406 222.524 167.541C216.145 173.241 209.428 179.063 206.154 187.121C205.758 188.097 204.24 187.435 204.636 186.46C210.332 172.441 225.397 165.62 233.489 153.279C237.264 147.52 239.297 140.609 236.964 133.921C234.923 128.073 230.495 123.424 226.759 118.585C222.836 113.505 219.982 108.07 218.864 101.737C217.721 95.258 218.2 88.5687 219.321 82.1213C221.973 67.5198 226.945 53.419 234.053 40.3355C242.081 25.3592 252.656 11.8434 265.32 0.372677C266.105 -0.336967 267.071 0.991453 266.292 1.69645V1.69646Z" fill="white"/>
<path d="M222.861 70.06C217.877 68.3489 213.673 64.9517 211.001 60.4751C208.329 55.9985 207.363 50.7339 208.275 45.6216C208.463 44.5878 210.106 44.8267 209.918 45.8619C209.06 50.6209 209.96 55.5248 212.457 59.6884C214.954 63.852 218.882 67.0011 223.533 68.5674C224.544 68.9089 223.866 70.3995 222.861 70.06H222.861Z" fill="white"/>
<path d="M225.441 114.793C235.204 110.268 242.873 102.293 246.92 92.4572C247.32 91.4824 248.838 92.1442 248.438 93.1179C244.208 103.346 236.209 111.629 226.04 116.315C225.07 116.761 224.477 115.236 225.441 114.793Z" fill="white"/>
<path d="M243.461 27.0458C245.249 28.1029 247.276 28.7069 249.361 28.8033C251.445 28.8998 253.521 28.4859 255.403 27.5986C256.366 27.1408 256.958 28.6663 256.001 29.1212C253.918 30.0919 251.624 30.5464 249.321 30.4448C247.018 30.3432 244.775 29.6887 242.789 28.5384C242.592 28.4454 242.439 28.2824 242.36 28.0824C242.282 27.8824 242.284 27.6605 242.365 27.4618C242.455 27.2646 242.621 27.1103 242.826 27.0324C243.031 26.9545 243.259 26.9593 243.461 27.0458Z" fill="white"/>
<path d="M466.983 123.366C451.464 89.619 452.036 46.8436 476.122 18.3667C484.18 57.8545 506.186 93.2676 538.247 118.34C550.648 127.966 565.459 137.403 568.847 152.574C570.955 162.014 567.967 171.998 562.802 180.221C557.636 188.444 550.436 195.209 543.318 201.875L542.519 204.156C511.545 183.075 482.503 157.112 466.983 123.366Z" fill="#F0F0F0"/>
<path d="M476.792 18.7784C471.249 48.617 475.367 80.3896 488.84 107.727C491.753 113.638 495.231 119.384 499.888 124.138C504.463 128.737 510.208 132.048 516.525 133.726C522.383 135.407 528.573 136.46 533.913 139.512C539.542 142.729 543.035 148.127 544.396 154.317C546.061 161.891 544.858 169.601 543.416 177.101C541.814 185.428 540.017 194.052 542.337 202.423C542.619 203.437 541.001 203.807 540.721 202.794C536.682 188.23 544.533 173.866 543.436 159.224C542.924 152.392 540.314 145.67 534.355 141.711C529.144 138.249 522.762 137.158 516.815 135.506C510.571 133.771 504.964 131.122 500.193 126.726C495.312 122.23 491.598 116.605 488.544 110.794C481.719 97.5657 477.053 83.3647 474.715 68.7112C471.953 52.0018 472.119 34.9511 475.206 18.2967C475.397 17.266 476.983 17.7544 476.792 18.7784Z" fill="white"/>
<path d="M483.984 99.0683C478.956 100.652 473.519 100.428 468.644 98.435C463.769 96.4421 459.773 92.8105 457.371 88.1888C456.888 87.252 458.346 86.4703 458.829 87.4083C461.059 91.7161 464.781 95.0986 469.325 96.9452C473.868 98.7919 478.934 98.9811 483.606 97.4788C484.622 97.1535 484.994 98.7448 483.984 99.0683V99.0683Z" fill="white"/>
<path d="M513.44 133.258C518.464 123.868 519.703 112.961 516.911 102.712C516.633 101.697 518.25 101.327 518.527 102.341C521.413 113.011 520.1 124.359 514.85 134.12C514.349 135.05 512.942 134.183 513.44 133.258Z" fill="white"/>
<path d="M474.087 52.5319C476.163 52.3175 478.151 51.5998 479.875 50.4431C481.598 49.2864 483.002 47.7271 483.961 45.9051C484.45 44.9693 485.857 45.8369 485.371 46.7665C484.303 48.7747 482.75 50.495 480.848 51.7771C478.947 53.0592 476.756 53.8641 474.465 54.1215C474.251 54.1635 474.029 54.1239 473.844 54.0108C473.658 53.8976 473.524 53.7194 473.468 53.5123C473.419 53.3016 473.456 53.0804 473.572 52.8968C473.688 52.7133 473.874 52.5821 474.087 52.5319Z" fill="white"/>
<path d="M603.675 18.6973C603.387 19.2901 603.099 19.883 602.817 20.4879C598.983 28.478 595.815 36.7612 593.345 45.2556C593.144 45.9094 592.95 46.5749 592.767 47.233C587.039 67.7603 585.237 89.1548 587.454 110.329C588.344 118.754 589.884 127.1 592.062 135.295C595.07 146.612 599.248 158.648 598.306 169.949C598.221 171.129 598.061 172.303 597.829 173.464L545.412 204.937C545.256 204.95 545.107 204.975 544.951 204.988L542.917 206.339C542.774 205.924 542.636 205.49 542.494 205.075C542.41 204.835 542.338 204.588 542.254 204.347C542.202 204.185 542.151 204.022 542.094 203.878C542.077 203.824 542.06 203.77 542.05 203.728C541.993 203.584 541.956 203.445 541.907 203.313C541.126 200.892 540.361 198.462 539.611 196.023C539.604 196.011 539.604 196.011 539.608 195.992C533.946 177.39 529.813 158.159 528.781 138.924C528.751 138.345 528.712 137.755 528.705 137.162C528.289 128.489 528.594 119.797 529.619 111.172C530.195 106.452 531.014 101.763 532.073 97.124C534.831 85.1423 539.49 73.6618 545.878 63.1033C558.615 42.057 578.058 25.2496 601.853 19.1461C602.461 18.9903 603.059 18.8412 603.675 18.6973Z" fill="#F0F0F0"/>
<path d="M603.964 19.422C581.263 39.9657 565.092 67.7716 559.107 97.5735C557.813 104.017 557.071 110.663 557.878 117.215C558.714 123.595 561.273 129.639 565.289 134.718C568.936 139.527 573.234 144.032 575.629 149.629C578.153 155.53 577.636 161.907 574.931 167.655C571.622 174.687 565.94 180.132 560.195 185.266C553.817 190.967 547.099 196.789 543.826 204.846C543.429 205.822 541.911 205.16 542.308 204.185C548.003 190.167 563.068 183.345 571.16 171.004C574.935 165.246 576.969 158.334 574.635 151.646C572.594 145.798 568.167 141.149 564.431 136.311C560.508 131.23 557.653 125.796 556.536 119.462C555.392 112.984 555.872 106.294 556.992 99.8469C559.645 85.2454 564.616 71.1446 571.724 58.0611C579.752 43.0848 590.327 29.5689 602.992 18.0983C603.776 17.3886 604.743 18.717 603.964 19.422V19.422Z" fill="white"/>
<path d="M560.533 87.7856C555.549 86.0745 551.345 82.6773 548.673 78.2007C546.001 73.7241 545.035 68.4595 545.947 63.3472C546.135 62.3134 547.778 62.5523 547.59 63.5874C546.731 68.3465 547.632 73.2503 550.129 77.414C552.626 81.5776 556.554 84.7267 561.205 86.2929C562.216 86.6345 561.538 88.1251 560.533 87.7856Z" fill="white"/>
<path d="M563.113 132.518C572.875 127.994 580.545 120.019 584.591 110.183C584.991 109.208 586.509 109.87 586.11 110.843C581.879 121.071 573.881 129.355 563.711 134.041C562.741 134.487 562.148 132.962 563.113 132.518Z" fill="white"/>
<path d="M581.132 44.7714C582.92 45.8285 584.948 46.4324 587.032 46.5289C589.117 46.6254 591.193 46.2114 593.074 45.3242C594.038 44.8664 594.63 46.3919 593.673 46.8468C591.589 47.8175 589.296 48.272 586.993 48.1704C584.689 48.0688 582.447 47.4143 580.46 46.264C580.264 46.171 580.11 46.008 580.032 45.808C579.953 45.608 579.955 45.3861 580.037 45.1874C580.127 44.9902 580.292 44.8359 580.497 44.758C580.702 44.6801 580.931 44.6849 581.132 44.7714Z" fill="white"/>
<path d="M153.104 345.117H552.393V117.868C552.392 116.166 551.703 114.533 550.478 113.329C549.253 112.125 547.593 111.448 545.861 111.446H159.637C157.905 111.448 156.245 112.125 155.02 113.329C153.795 114.533 153.106 116.166 153.104 117.868V345.117Z" fill="#CACACA"/>
<path d="M540.057 120.328H165.441V329.402H540.057V120.328Z" fill="white"/>
<path d="M152.757 338.968V367.01C152.757 368.173 152.99 369.324 153.442 370.398C153.895 371.472 154.558 372.448 155.394 373.27C156.231 374.092 157.223 374.744 158.316 375.189C159.408 375.634 160.579 375.863 161.762 375.863H309.136V431.206H307.179C307.025 431.206 306.873 431.236 306.731 431.293C306.589 431.351 306.46 431.436 306.351 431.543C306.243 431.649 306.157 431.776 306.098 431.916C306.039 432.055 306.009 432.205 306.009 432.356V436.205C306.009 436.356 306.039 436.506 306.098 436.645C306.157 436.785 306.243 436.912 306.351 437.018C306.46 437.125 306.589 437.21 306.731 437.268C306.873 437.325 307.025 437.355 307.179 437.355H398.667C398.82 437.355 398.972 437.325 399.114 437.268C399.256 437.21 399.385 437.125 399.494 437.018C399.602 436.912 399.689 436.785 399.747 436.645C399.806 436.506 399.836 436.356 399.836 436.205V432.356C399.836 432.205 399.806 432.055 399.747 431.916C399.689 431.776 399.602 431.649 399.494 431.543C399.385 431.436 399.256 431.351 399.114 431.293C398.972 431.236 398.82 431.206 398.667 431.206H396.709V375.863H544.083C545.266 375.863 546.437 375.634 547.529 375.189C548.622 374.744 549.615 374.092 550.451 373.27C551.287 372.448 551.95 371.472 552.403 370.398C552.855 369.324 553.088 368.173 553.088 367.01V338.968L152.757 338.968Z" fill="#3F3D56"/>
<path d="M281.928 223.723H190.637C190.001 223.722 189.391 223.474 188.941 223.032C188.491 222.589 188.238 221.99 188.237 221.364V184.95C188.238 184.324 188.491 183.725 188.941 183.283C189.391 182.84 190.001 182.592 190.637 182.591H281.928C282.564 182.592 283.174 182.84 283.624 183.283C284.074 183.725 284.327 184.324 284.328 184.95V221.364C284.327 221.99 284.074 222.589 283.624 223.032C283.174 223.474 282.564 223.722 281.928 223.723Z" fill="#031B89"/>
<path d="M273.236 241.192H199.33C198.566 241.192 197.834 240.893 197.294 240.362C196.754 239.832 196.45 239.112 196.45 238.361C196.45 237.61 196.754 236.89 197.294 236.359C197.834 235.828 198.566 235.53 199.33 235.53H273.236C276.949 235.479 276.986 241.243 273.236 241.192Z" fill="#E4E4E4"/>
<path d="M273.236 254.166H199.33C198.566 254.166 197.834 253.867 197.294 253.337C196.754 252.806 196.45 252.086 196.45 251.335C196.45 250.584 196.754 249.864 197.294 249.333C197.834 248.802 198.566 248.504 199.33 248.504H273.236C276.949 248.453 276.986 254.217 273.236 254.166Z" fill="#E4E4E4"/>
<path d="M273.236 267.14H199.33C198.566 267.14 197.834 266.841 197.294 266.31C196.754 265.78 196.45 265.06 196.45 264.309C196.45 263.558 196.754 262.838 197.294 262.307C197.834 261.776 198.566 261.478 199.33 261.478H273.236C276.949 261.427 276.986 267.191 273.236 267.14Z" fill="#E4E4E4"/>
<path d="M398.394 223.723H307.103C306.467 223.722 305.857 223.474 305.407 223.032C304.957 222.589 304.704 221.99 304.704 221.364V184.95C304.704 184.324 304.957 183.725 305.407 183.283C305.857 182.84 306.467 182.592 307.103 182.591H398.394C399.031 182.592 399.641 182.84 400.09 183.283C400.54 183.725 400.793 184.324 400.794 184.95V221.364C400.793 221.99 400.54 222.589 400.09 223.032C399.641 223.474 399.031 223.722 398.394 223.723Z" fill="#031B89"/>
<path d="M389.702 241.192H315.796C315.032 241.192 314.3 240.893 313.76 240.362C313.22 239.832 312.917 239.112 312.917 238.361C312.917 237.61 313.22 236.89 313.76 236.359C314.3 235.828 315.032 235.53 315.796 235.53H389.702C393.415 235.479 393.452 241.243 389.702 241.192Z" fill="#E4E4E4"/>
<path d="M389.702 254.166H315.796C315.032 254.166 314.3 253.867 313.76 253.337C313.22 252.806 312.917 252.086 312.917 251.335C312.917 250.584 313.22 249.864 313.76 249.333C314.3 248.802 315.032 248.504 315.796 248.504H389.702C393.415 248.453 393.452 254.217 389.702 254.166Z" fill="#E4E4E4"/>
<path d="M389.702 267.14H315.796C315.032 267.14 314.3 266.841 313.76 266.31C313.22 265.78 312.917 265.06 312.917 264.309C312.917 263.558 313.22 262.838 313.76 262.307C314.3 261.776 315.032 261.478 315.796 261.478H389.702C393.415 261.427 393.452 267.191 389.702 267.14Z" fill="#E4E4E4"/>
<path d="M514.861 223.723H423.569C422.933 223.722 422.323 223.474 421.874 223.032C421.424 222.589 421.171 221.99 421.17 221.364V184.95C421.171 184.324 421.424 183.725 421.874 183.283C422.323 182.84 422.933 182.592 423.569 182.591H514.861C515.497 182.592 516.107 182.84 516.557 183.283C517.007 183.725 517.26 184.324 517.26 184.95V221.364C517.26 221.99 517.007 222.589 516.557 223.032C516.107 223.474 515.497 223.722 514.861 223.723Z" fill="#031B89"/>
<path d="M506.168 241.192H432.262C431.498 241.192 430.766 240.893 430.226 240.362C429.686 239.832 429.382 239.112 429.382 238.361C429.382 237.61 429.686 236.89 430.226 236.359C430.766 235.828 431.498 235.53 432.262 235.53H506.168C509.881 235.479 509.918 241.243 506.168 241.192Z" fill="#E4E4E4"/>
<path d="M506.168 254.166H432.262C431.499 254.164 430.768 253.866 430.229 253.335C429.69 252.804 429.387 252.085 429.387 251.335C429.387 250.585 429.69 249.866 430.229 249.335C430.768 248.804 431.499 248.506 432.262 248.504H506.168C509.881 248.453 509.918 254.217 506.168 254.166Z" fill="#E4E4E4"/>
<path d="M506.168 267.14H432.262C431.498 267.14 430.766 266.841 430.226 266.31C429.686 265.78 429.382 265.06 429.382 264.309C429.382 263.558 429.686 262.838 430.226 262.307C430.766 261.776 431.498 261.478 432.262 261.478H506.168C509.881 261.427 509.918 267.191 506.168 267.14Z" fill="#E4E4E4"/>
<path d="M670.857 183.082L671.107 228.725L672.124 228.669L673.091 245.567L671.202 245.668L671.255 255.82L672.767 255.791L673.073 272.704L671.352 272.735L672.172 421.674C672.189 425.574 670.632 429.322 667.843 432.094C665.053 434.867 661.258 436.438 657.291 436.463L489.931 437.355C485.964 437.373 482.152 435.843 479.331 433.1C476.51 430.357 474.912 426.626 474.887 422.726L473.573 184.134C473.555 180.235 475.112 176.487 477.902 173.714C480.692 170.942 484.487 169.37 488.454 169.345L655.813 168.454C659.78 168.438 663.591 169.969 666.411 172.711C669.231 175.453 670.83 179.183 670.857 183.082Z" fill="#3F3D56"/>
<path d="M657.533 427.08L489.584 427.976C488.361 427.981 487.186 427.509 486.317 426.663C485.448 425.818 484.955 424.668 484.947 423.466L483.622 183.288C483.617 182.086 484.097 180.931 484.957 180.076C485.817 179.222 486.986 178.737 488.209 178.73L656.158 177.834C657.381 177.829 658.556 178.301 659.425 179.146C660.294 179.992 660.787 181.142 660.795 182.344L662.12 422.522C662.125 423.724 661.645 424.879 660.785 425.733C659.925 426.588 658.756 427.072 657.533 427.08Z" fill="white"/>
<path d="M571.52 174.657C572.223 174.657 572.793 174.097 572.793 173.406C572.793 172.714 572.223 172.154 571.52 172.154C570.817 172.154 570.248 172.714 570.248 173.406C570.248 174.097 570.817 174.657 571.52 174.657Z" fill="white"/>
<path d="M621.473 245.437H524.269C523.592 245.436 522.943 245.171 522.464 244.7C521.985 244.229 521.715 243.591 521.714 242.925V204.152C521.715 203.486 521.985 202.848 522.464 202.377C522.943 201.906 523.592 201.641 524.269 201.64H621.473C622.15 201.641 622.8 201.906 623.279 202.377C623.758 202.848 624.027 203.486 624.028 204.152V242.925C624.027 243.591 623.758 244.229 623.279 244.7C622.8 245.171 622.15 245.436 621.473 245.437Z" fill="#031B89"/>
<path d="M612.217 264.036H533.525C532.712 264.036 531.932 263.719 531.357 263.153C530.782 262.588 530.459 261.822 530.459 261.022C530.459 260.223 530.782 259.456 531.357 258.891C531.932 258.326 532.712 258.008 533.525 258.008H612.217C616.171 257.954 616.211 264.091 612.217 264.036Z" fill="#E4E4E4"/>
<path d="M612.217 277.85H533.525C532.713 277.849 531.934 277.531 531.36 276.966C530.786 276.401 530.464 275.635 530.464 274.836C530.464 274.038 530.786 273.272 531.36 272.707C531.934 272.142 532.713 271.823 533.525 271.822H612.217C616.171 271.768 616.211 277.905 612.217 277.85Z" fill="#E4E4E4"/>
<path d="M612.217 291.664H533.525C532.712 291.664 531.932 291.347 531.357 290.782C530.782 290.216 530.459 289.45 530.459 288.65C530.459 287.851 530.782 287.084 531.357 286.519C531.932 285.954 532.712 285.636 533.525 285.636H612.217C616.171 285.582 616.211 291.719 612.217 291.664Z" fill="#E4E4E4"/>
<path d="M621.473 357.941H524.269C523.592 357.94 522.943 357.676 522.464 357.205C521.985 356.734 521.715 356.095 521.714 355.43V316.657C521.715 315.991 521.985 315.352 522.464 314.882C522.943 314.411 523.592 314.146 524.269 314.145H621.473C622.15 314.146 622.8 314.411 623.279 314.881C623.758 315.352 624.027 315.991 624.028 316.657V355.43C624.027 356.095 623.758 356.734 623.279 357.205C622.8 357.676 622.15 357.94 621.473 357.941Z" fill="#031B89"/>
<path d="M612.217 376.541H533.525C532.712 376.541 531.932 376.224 531.357 375.658C530.782 375.093 530.459 374.326 530.459 373.527C530.459 372.728 530.782 371.961 531.357 371.396C531.932 370.831 532.712 370.513 533.525 370.513H612.217C616.171 370.459 616.211 376.596 612.217 376.541Z" fill="#E4E4E4"/>
<path d="M612.217 390.355H533.525C532.713 390.354 531.934 390.036 531.36 389.47C530.786 388.905 530.464 388.139 530.464 387.341C530.464 386.542 530.786 385.777 531.36 385.212C531.934 384.646 532.713 384.328 533.525 384.327H612.217C616.171 384.273 616.211 390.41 612.217 390.355Z" fill="#E4E4E4"/>
<path d="M612.217 404.169H533.525C532.712 404.169 531.932 403.852 531.357 403.286C530.782 402.721 530.459 401.955 530.459 401.155C530.459 400.356 530.782 399.589 531.357 399.024C531.932 398.459 532.712 398.141 533.525 398.141H612.217C616.171 398.087 616.211 404.224 612.217 404.169Z" fill="#E4E4E4"/>
<path d="M189.586 425.635L189.263 294.1L190.482 294.097L190.424 269.904L189.204 269.908L189.104 229.522C189.1 228.014 188.794 226.521 188.204 225.129C187.613 223.736 186.75 222.472 185.662 221.408C184.574 220.344 183.284 219.501 181.865 218.927C180.446 218.354 178.926 218.06 177.392 218.064L90.4451 218.27C88.9107 218.274 87.3921 218.574 85.976 219.155C84.5598 219.735 83.2739 220.584 82.1915 221.654C81.1091 222.723 80.2516 223.991 79.6678 225.386C79.084 226.781 78.7854 228.275 78.7891 229.783L78.8583 257.942L76.9155 257.99L77.3446 274.905L78.8999 274.867L78.9091 278.599L77.254 278.639L77.6831 295.554L78.9507 295.523L79.2711 425.896C79.272 427.406 79.5759 428.9 80.1654 430.293C80.755 431.687 81.6186 432.952 82.7068 434.017C83.7949 435.081 85.0861 435.924 86.5064 436.497C87.9267 437.07 89.448 437.362 90.9832 437.355L177.93 437.149C181.028 437.138 183.994 435.919 186.18 433.761C188.365 431.603 189.59 428.68 189.586 425.635Z" fill="#3F3D56"/>
<path d="M88.3247 432.091C87.2403 431.708 86.3022 431.006 85.6379 430.081C84.9735 429.155 84.6151 428.051 84.6114 426.919L84.1245 228.736C84.1211 227.276 84.7076 225.875 85.7549 224.84C86.8023 223.806 88.2248 223.223 89.7096 223.219L108.209 223.175L107.98 223.73C107.583 224.695 107.433 225.74 107.543 226.775C107.654 227.81 108.021 228.802 108.614 229.664C109.206 230.526 110.005 231.231 110.94 231.718C111.876 232.205 112.918 232.459 113.976 232.456L155.033 232.359C156.054 232.271 157.041 231.948 157.913 231.416C158.784 230.884 159.516 230.158 160.049 229.297C160.574 228.45 160.889 227.493 160.966 226.504C161.043 225.515 160.882 224.522 160.495 223.606L160.263 223.052L179.372 223.006C180.856 223.004 182.281 223.582 183.333 224.611C184.385 225.64 184.979 227.038 184.984 228.497L185.449 417.58C185.454 421.452 183.896 425.167 181.118 427.912C178.34 430.656 174.567 432.205 170.629 432.219L90.2236 432.41C89.5767 432.412 88.9342 432.304 88.3247 432.091Z" fill="white"/>
<path d="M119.998 227.873C120.701 227.873 121.271 227.312 121.271 226.621C121.271 225.93 120.701 225.37 119.998 225.37C119.295 225.37 118.726 225.93 118.726 226.621C118.726 227.312 119.295 227.873 119.998 227.873Z" fill="white"/>
<path d="M169.201 288.78H103.144C102.683 288.78 102.242 288.6 101.916 288.28C101.591 287.96 101.408 287.526 101.407 287.073V260.724C101.408 260.272 101.591 259.838 101.916 259.518C102.242 259.198 102.683 259.018 103.144 259.017H169.201C169.661 259.018 170.102 259.198 170.428 259.518C170.753 259.838 170.936 260.272 170.937 260.724V287.073C170.936 287.526 170.753 287.96 170.428 288.28C170.102 288.6 169.661 288.78 169.201 288.78Z" fill="#031B89"/>
<path d="M162.911 301.42H109.433C109.159 301.421 108.888 301.368 108.635 301.265C108.382 301.163 108.151 301.012 107.957 300.822C107.763 300.631 107.61 300.406 107.505 300.157C107.4 299.908 107.346 299.641 107.346 299.372C107.346 299.103 107.4 298.836 107.505 298.587C107.61 298.338 107.763 298.112 107.957 297.922C108.151 297.732 108.382 297.581 108.635 297.478C108.888 297.376 109.159 297.323 109.433 297.324H162.911C165.598 297.287 165.625 301.457 162.911 301.42Z" fill="#E4E4E4"/>
<path d="M162.911 310.808H109.434C108.881 310.808 108.351 310.592 107.96 310.208C107.57 309.824 107.35 309.303 107.35 308.76C107.35 308.216 107.57 307.695 107.96 307.311C108.351 306.927 108.881 306.711 109.434 306.711H162.911C165.598 306.675 165.625 310.845 162.911 310.808Z" fill="#E4E4E4"/>
<path d="M162.911 320.196H109.433C109.159 320.196 108.888 320.144 108.635 320.041C108.382 319.938 108.151 319.787 107.957 319.597C107.763 319.407 107.61 319.181 107.505 318.932C107.4 318.683 107.346 318.417 107.346 318.147C107.346 317.878 107.4 317.611 107.505 317.363C107.61 317.114 107.763 316.888 107.957 316.698C108.151 316.507 108.382 316.357 108.635 316.254C108.888 316.151 109.159 316.099 109.433 316.099H162.911C165.598 316.062 165.625 320.233 162.911 320.196Z" fill="#E4E4E4"/>
<path d="M169.201 367.74H103.144C102.683 367.739 102.242 367.559 101.916 367.239C101.591 366.919 101.408 366.485 101.407 366.033V339.684C101.408 339.231 101.591 338.797 101.916 338.477C102.242 338.157 102.683 337.977 103.144 337.977H169.201C169.661 337.977 170.102 338.157 170.428 338.477C170.753 338.797 170.936 339.231 170.937 339.684V366.033C170.936 366.485 170.753 366.919 170.428 367.239C170.102 367.559 169.661 367.739 169.201 367.74Z" fill="#031B89"/>
<path d="M162.911 380.379H109.433C109.159 380.38 108.888 380.327 108.635 380.225C108.382 380.122 108.151 379.971 107.957 379.781C107.763 379.591 107.61 379.365 107.505 379.116C107.4 378.867 107.346 378.601 107.346 378.331C107.346 378.062 107.4 377.795 107.505 377.546C107.61 377.298 107.763 377.072 107.957 376.881C108.151 376.691 108.382 376.54 108.635 376.438C108.888 376.335 109.159 376.282 109.433 376.283H162.911C165.598 376.246 165.625 380.417 162.911 380.379Z" fill="#E4E4E4"/>
<path d="M162.911 389.767H109.434C108.881 389.767 108.351 389.551 107.96 389.167C107.57 388.783 107.35 388.262 107.35 387.719C107.35 387.176 107.57 386.655 107.96 386.271C108.351 385.886 108.881 385.671 109.434 385.671H162.911C165.598 385.634 165.625 389.804 162.911 389.767Z" fill="#E4E4E4"/>
<path d="M162.911 399.155H109.433C109.159 399.156 108.888 399.103 108.635 399C108.382 398.898 108.151 398.747 107.957 398.557C107.763 398.366 107.61 398.14 107.505 397.892C107.4 397.643 107.346 397.376 107.346 397.107C107.346 396.838 107.4 396.571 107.505 396.322C107.61 396.073 107.763 395.847 107.957 395.657C108.151 395.467 108.382 395.316 108.635 395.213C108.888 395.111 109.159 395.058 109.433 395.059H162.911C165.598 395.022 165.625 399.192 162.911 399.155Z" fill="#E4E4E4"/>
<path d="M21.5358 430.157L28.7138 430.156L32.1282 402.94H21.5342L21.5358 430.157Z" fill="#A0616A"/>
<path d="M19.7046 427.853L21.7249 427.853L29.6125 424.7L33.84 427.853H33.8406C36.2297 427.853 38.5209 428.786 40.2102 430.446C41.8996 432.107 42.8487 434.36 42.8489 436.708V436.996L19.705 436.997L19.7046 427.853Z" fill="#2F2E41"/>
<path d="M49.3511 425.71L56.352 427.265L65.7814 401.456L55.448 399.162L49.3511 425.71Z" fill="#A0616A"/>
<path d="M48.0806 423.067L50.0513 423.504L58.4518 422.136L61.869 426.127L61.8696 426.127C64.1999 426.645 66.2258 428.051 67.5015 430.037C68.7772 432.022 69.1984 434.425 68.6723 436.716L68.6078 436.997L46.0322 431.986L48.0806 423.067Z" fill="#2F2E41"/>
<path d="M12.4448 263.77C9.07954 273.747 9.43532 284.578 13.2537 296.202L14.8859 361.648C14.8859 361.648 12.454 404.567 20.3015 419.669H31.6825L37.3174 357.729L38.025 316.154L62.4247 351.229L46.8838 418.656L60.8912 419.887L86.1099 346.713L54.995 275.721L12.4448 263.77Z" fill="#2F2E41"/>
<path d="M57.0245 277.818L15.6405 271.31C14.5552 270.968 13.5579 270.4 12.7171 269.643C11.8763 268.887 11.2121 267.961 10.7698 266.928C10.3276 265.896 10.1179 264.781 10.1551 263.661C10.1923 262.542 10.4756 261.443 10.9855 260.441L12.8622 256.751L12.1332 217.979C12.0453 212.936 13.31 207.959 15.8001 203.549C18.2902 199.139 21.9179 195.451 26.3181 192.857L30.3537 190.485L32.3932 185.393L51.1996 185.844L51.2544 192.522L57.9894 203.08L57.9891 203.123L57.5665 260.588L55.7103 266.518L58.517 273.416L57.0245 277.818Z" fill="#3F3D56"/>
<path d="M43.5186 179.062C52.9558 179.062 60.6061 171.541 60.6061 162.264C60.6061 152.987 52.9558 145.466 43.5186 145.466C34.0815 145.466 26.4312 152.987 26.4312 162.264C26.4312 171.541 34.0815 179.062 43.5186 179.062Z" fill="#A0616A"/>
<path d="M25.7251 165.926C25.2154 163.815 25.4494 160.845 25.7374 158.72C26.1063 155.917 27.07 153.222 28.5661 150.81C30.0622 148.397 32.0572 146.32 34.4221 144.713C35.3288 144.036 36.4062 143.616 37.5383 143.496C38.1041 143.449 38.6705 143.58 39.1564 143.868C39.6422 144.157 40.0226 144.59 40.2431 145.104C40.5281 144.405 40.9558 143.771 41.4999 143.24C42.044 142.71 42.6929 142.295 43.4065 142.02C44.8401 141.481 46.3819 141.276 47.9097 141.424C50.8711 141.664 53.7111 142.688 56.1284 144.386C58.5457 146.085 60.4501 148.395 61.6395 151.072C62.0959 152.138 63.3707 148.201 63.949 149.208C64.4804 150.255 65.4075 151.056 66.5318 151.439C67.6649 151.75 68.1252 156.339 68.5711 155.269C68.917 156.06 69.0538 156.924 68.9686 157.781C68.8834 158.638 68.579 159.459 68.0838 160.169C67.5886 160.88 66.9186 161.455 66.1363 161.842C65.354 162.229 64.4849 162.415 63.6097 162.383C62.4658 162.237 61.3319 162.024 60.2142 161.744C58.1619 161.489 56.0859 161.983 54.3782 163.13C52.6705 164.278 51.4493 166 50.9452 167.972C50.6333 166.826 50.135 165.736 49.4696 164.745C49.1319 164.252 48.6793 163.846 48.1496 163.56C47.6199 163.274 47.0283 163.116 46.4242 163.1C45.8466 163.165 45.2887 163.346 44.7847 163.631C44.2807 163.915 43.8413 164.298 43.4934 164.756C42.7411 165.625 42.1761 166.638 41.4183 167.501C39.1947 170.035 36.1872 175.945 33.0184 175.514C30.5176 175.174 26.4209 168.808 25.7251 165.926Z" fill="#2F2E41"/>
<path d="M107.219 265.556C106.492 265.866 105.704 266.017 104.912 265.996C104.119 265.974 103.341 265.783 102.631 265.434C101.922 265.085 101.3 264.588 100.807 263.977C100.315 263.366 99.9644 262.657 99.7811 261.898L80.6045 259.994L86.931 252.36L104.171 255.339C105.488 255.121 106.84 255.385 107.972 256.081C109.103 256.777 109.936 257.858 110.311 259.117C110.687 260.376 110.58 261.727 110.01 262.914C109.44 264.101 108.447 265.041 107.219 265.556Z" fill="#A0616A"/>
<path d="M95.4241 262.528L50.6723 258.474L50.6109 258.405L17.9498 221.615C15.8003 218.378 14.991 214.455 15.6876 210.65C16.3842 206.845 18.5339 203.446 21.6966 201.149C23.4466 199.881 25.4498 198.992 27.5746 198.54C29.6993 198.088 31.8974 198.083 34.024 198.527C36.1506 198.97 38.1576 199.851 39.9129 201.112C41.6682 202.373 43.1319 203.985 44.2078 205.842L64.3245 240.567L95.9171 253.045L95.4241 262.528Z" fill="#3F3D56"/>
<path d="M788.024 438H0.975975C0.717647 437.999 0.470154 437.898 0.287753 437.718C0.105352 437.538 0.00292969 437.295 0.00292969 437.041C0.00292969 436.787 0.105352 436.543 0.287753 436.363C0.470154 436.183 0.717647 436.082 0.975975 436.081H788.024C788.283 436.081 788.531 436.182 788.714 436.362C788.897 436.542 789 436.786 789 437.041C789 437.295 788.897 437.539 788.714 437.719C788.531 437.899 788.283 438 788.024 438Z" fill="#CCCCCC"/>
<path d="M651.152 266.525C651.883 266.594 652.62 266.505 653.312 266.264C654.003 266.023 654.633 265.635 655.156 265.129C655.679 264.622 656.082 264.009 656.338 263.333C656.594 262.657 656.696 261.934 656.637 261.214L672.967 254.147L665.176 249.205L650.864 256.674C649.641 256.852 648.528 257.464 647.734 258.395C646.94 259.326 646.521 260.511 646.557 261.726C646.592 262.94 647.08 264.099 647.927 264.984C648.774 265.869 649.921 266.417 651.152 266.525V266.525Z" fill="#FFB6B6"/>
<path d="M660.753 259.608L657.853 249.682L687.206 235.205L704.522 202.405C705.378 200.784 706.586 199.368 708.061 198.258C709.537 197.147 711.242 196.37 713.058 195.98C714.873 195.591 716.753 195.599 718.565 196.004C720.377 196.409 722.076 197.202 723.541 198.325C726.185 200.357 727.902 203.336 728.314 206.611C728.725 209.885 727.799 213.186 725.738 215.79L699.701 248.612L660.753 259.608Z" fill="#E4E4E4"/>
</g>
<defs>
<clipPath id="clip0_33_91">
<rect width="789" height="438" fill="white"/>
</clipPath>
</defs>
</svg>
