<svg width="50" height="50" viewBox="0 0 50 50" fill="none" xmlns="http://www.w3.org/2000/svg">
<path d="M49.32 43.2282L39.583 33.4928C39.1435 33.0534 38.5477 32.8093 37.9227 32.8093H36.3308C39.0263 29.3624 40.628 25.0269 40.628 20.3105C40.628 9.09091 31.5355 0 20.314 0C9.09246 0 0 9.09091 0 20.3105C0 31.5301 9.09246 40.621 20.314 40.621C25.0311 40.621 29.3674 39.0196 32.8149 36.3246V37.9162C32.8149 38.5412 33.0591 39.1368 33.4985 39.5762L43.2356 49.3116C44.1536 50.2295 45.6381 50.2295 46.5464 49.3116L49.3102 46.5482C50.2283 45.6303 50.2283 44.1461 49.32 43.2282ZM20.314 32.8093C13.4092 32.8093 7.81307 27.2239 7.81307 20.3105C7.81307 13.4069 13.3994 7.81174 20.314 7.81174C27.2188 7.81174 32.8149 13.3971 32.8149 20.3105C32.8149 27.2141 27.2286 32.8093 20.314 32.8093Z" fill="#6196FE"/>
</svg>
