<svg width="548" height="549" viewBox="0 0 548 549" fill="none" xmlns="http://www.w3.org/2000/svg">
<g clip-path="url(#clip0_33_46)">
<path d="M528.821 229.839C501.417 271.231 449.705 280.71 406.919 266.293C392.919 261.461 379.412 254.82 366.645 246.491C359.229 241.735 351.99 236.517 344.9 230.957C343.155 229.595 341.41 228.212 339.684 226.801C338.507 225.851 337.334 224.89 336.165 223.916C321.522 211.749 307.453 198.401 293.62 185.13C259.089 152.001 223.612 117.852 181.185 102.046C172.445 98.7909 161.137 97.2682 155.732 106.013C151.042 113.606 153.905 124.355 157.873 132.5C172.593 162.667 199.311 181.714 226.054 196.361C252.796 211.009 281.124 222.876 304.371 244.291C327.619 265.706 345.367 299.743 340.612 334.101C336.514 363.71 316.046 387.766 292.248 398.25C268.451 408.727 241.909 407.267 217.171 400.464C192.434 393.654 168.95 381.773 145.075 371.533C130.681 365.351 111.863 361.077 102.312 375.221C94.2454 387.172 98.8818 406.024 108.705 415.97C118.528 425.916 131.822 429.248 144.507 432.238C183.894 441.527 223.28 450.815 262.667 460.1C274.749 462.943 287.115 465.918 297.642 473.49C308.168 481.054 316.661 494.27 316.359 508.819C316.057 523.159 307.169 535.829 296.275 542.178C285.388 548.52 272.815 549.498 260.686 548.814C215.232 546.243 84.9192 460.952 53.6642 450.049C33.5807 443.05 11.6225 432.769 3.15365 410.152C-7.39086 381.996 9.96068 347.931 33.6457 335.072C57.3249 322.206 84.7772 325.056 110.585 329.387C136.394 333.717 163.053 339.228 188.176 331C213.298 322.772 236.315 295.95 233.837 265.301C231.678 238.633 211.34 218.538 189.938 209.681C173.184 202.746 155.359 200.86 137.76 197.737C132.875 196.878 128.008 195.914 123.188 194.727C110.844 191.673 98.8038 187.108 87.2611 181.107C75.1484 174.823 63.6413 167.023 52.9369 157.84C44.3991 150.527 36.4204 142.345 29.0922 133.387C27.9744 132.018 26.8684 130.618 25.7743 129.189C24.7336 127.82 23.7045 126.423 22.6993 124.998C9.61767 106.537 -0.0458207 83.8016 2.85221 60.3746C5.7439 37.0105 21.1616 17.5579 39.5183 8.21223C50.1278 2.81299 61.5712 0.396247 73.1564 0.0470081C81.6276 -0.152951 90.0964 0.567184 98.4559 2.19832C137.139 9.50441 172.587 31.7021 206.065 55.7367C239.538 79.7714 272.159 106.153 308.547 123.287C344.935 140.427 386.356 147.684 423.27 132.185C460.185 116.693 490.511 74.421 488.708 28.2027C513.191 53.1035 533.996 84.4023 543.21 120.975C552.424 157.547 548.722 199.777 528.821 229.839Z" fill="#3F3D56"/>
<path d="M352.415 182.073C354.792 182.073 356.719 179.798 356.719 176.99C356.719 174.183 354.792 171.907 352.415 171.907C350.038 171.907 348.111 174.183 348.111 176.99C348.111 179.798 350.038 182.073 352.415 182.073Z" fill="#031B89"/>
<path d="M504.402 117.795C508.077 117.795 511.057 114.277 511.057 109.936C511.057 105.596 508.077 102.077 504.402 102.077C500.727 102.077 497.748 105.596 497.748 109.936C497.748 114.277 500.727 117.795 504.402 117.795Z" fill="#FF6584"/>
<path d="M67.9567 360.102C69.3146 360.102 70.4154 358.801 70.4154 357.198C70.4154 355.594 69.3146 354.294 67.9567 354.294C66.5988 354.294 65.498 355.594 65.498 357.198C65.498 358.801 66.5988 360.102 67.9567 360.102Z" fill="#FF6584"/>
<path d="M138.528 190.263C138.53 192.782 138.272 195.291 137.76 197.737C132.874 196.878 128.007 195.914 123.188 194.726C110.844 191.672 98.8035 187.107 87.2607 181.106C89.1169 174.028 93.0605 167.97 98.3756 164.033C103.691 160.095 110.025 158.54 116.228 159.648C122.432 160.756 128.093 164.454 132.185 170.071C136.276 175.689 138.527 182.853 138.528 190.263V190.263Z" fill="#FF6584"/>
<path d="M461.822 163.895C463.211 163.895 464.337 162.565 464.337 160.925C464.337 159.285 463.211 157.955 461.822 157.955C460.433 157.955 459.308 159.285 459.308 160.925C459.308 162.565 460.433 163.895 461.822 163.895Z" fill="#F0F0F0"/>
<path d="M231.771 490.783C233.16 490.783 234.286 489.453 234.286 487.813C234.286 486.173 233.16 484.843 231.771 484.843C230.383 484.843 229.257 486.173 229.257 487.813C229.257 489.453 230.383 490.783 231.771 490.783Z" fill="#F0F0F0"/>
<path d="M267.847 531.994C269.235 531.994 270.361 530.664 270.361 529.024C270.361 527.383 269.235 526.054 267.847 526.054C266.458 526.054 265.332 527.383 265.332 529.024C265.332 530.664 266.458 531.994 267.847 531.994Z" fill="#F0F0F0"/>
<path d="M44.8925 414.649C46.2813 414.649 47.4071 413.319 47.4071 411.679C47.4071 410.039 46.2813 408.709 44.8925 408.709C43.5037 408.709 42.3779 410.039 42.3779 411.679C42.3779 413.319 43.5037 414.649 44.8925 414.649Z" fill="#F0F0F0"/>
<path d="M168.493 359.469C169.882 359.469 171.008 358.139 171.008 356.499C171.008 354.859 169.882 353.529 168.493 353.529C167.104 353.529 165.979 354.859 165.979 356.499C165.979 358.139 167.104 359.469 168.493 359.469Z" fill="#F0F0F0"/>
<path d="M156.074 64.7111C157.463 64.7111 158.589 63.3814 158.589 61.7411C158.589 60.1009 157.463 58.7712 156.074 58.7712C154.685 58.7712 153.56 60.1009 153.56 61.7411C153.56 63.3814 154.685 64.7111 156.074 64.7111Z" fill="#F0F0F0"/>
<path d="M308.06 297.305C309.449 297.305 310.575 295.975 310.575 294.335C310.575 292.694 309.449 291.365 308.06 291.365C306.672 291.365 305.546 292.694 305.546 294.335C305.546 295.975 306.672 297.305 308.06 297.305Z" fill="#F0F0F0"/>
<path d="M326.985 348.992C328.374 348.992 329.5 347.662 329.5 346.022C329.5 344.382 328.374 343.052 326.985 343.052C325.597 343.052 324.471 344.382 324.471 346.022C324.471 347.662 325.597 348.992 326.985 348.992Z" fill="#F0F0F0"/>
<path d="M100.325 71.2214C100.343 86.2168 97.3435 101.003 91.5725 114.359C90.8096 116.12 90.0014 117.849 89.1478 119.549C80.6967 136.405 68.0527 149.775 52.9371 157.84C44.3993 150.527 36.4206 142.344 29.0924 133.386C27.9746 132.017 26.8686 130.618 25.7745 129.188C24.7338 127.819 23.7046 126.422 22.6994 124.997C9.61784 106.536 -0.0456487 83.801 2.85239 60.374C5.74407 37.0099 21.1618 17.5572 39.5185 8.21156C50.128 2.81232 61.5714 0.395626 73.1566 0.0463867C82.2151 9.49475 89.3563 21.2307 94.0504 34.3836C94.6418 36.039 95.1858 37.7154 95.7004 39.4127C98.7696 49.6255 100.334 60.3842 100.325 71.2214V71.2214Z" fill="#031B89"/>
<path d="M136.991 76.1107C136.991 90.66 124.962 104.155 103.116 114.122C98.7458 116.12 94.0678 117.929 89.1476 119.549C70.7317 125.612 48.8148 128.972 25.7743 129.188C24.7336 127.819 23.7044 126.422 22.6992 124.997C22.9476 125.004 23.1959 125.004 23.4442 125.004C48.4659 125.004 72.2043 121.26 91.5723 114.359C95.1501 113.081 98.5803 111.698 101.839 110.21C121.922 101.053 133.443 88.6204 133.443 76.1107C133.443 63.6009 121.922 51.175 101.839 42.0109C99.8518 41.1029 97.8056 40.2368 95.7002 39.4126C95.1856 37.7153 94.6416 36.0389 94.0502 34.3835C97.1963 35.543 100.218 36.7817 103.116 38.0995C124.962 48.0667 136.991 61.5683 136.991 76.1107Z" fill="#E4E4E4"/>
<path d="M27.1513 24.1993C28.54 24.1993 29.6659 22.8697 29.6659 21.2294C29.6659 19.5892 28.54 18.2595 27.1513 18.2595C25.7625 18.2595 24.6367 19.5892 24.6367 21.2294C24.6367 22.8697 25.7625 24.1993 27.1513 24.1993Z" fill="#F0F0F0"/>
<path d="M79.7851 43.0582C81.1738 43.0582 82.2996 41.7286 82.2996 40.0883C82.2996 38.4481 81.1738 37.1184 79.7851 37.1184C78.3963 37.1184 77.2705 38.4481 77.2705 40.0883C77.2705 41.7286 78.3963 43.0582 79.7851 43.0582Z" fill="#F0F0F0"/>
<path d="M52.5809 99.0039C66.0859 99.0039 77.0339 86.0735 77.0339 70.1229C77.0339 54.1724 66.0859 41.2419 52.5809 41.2419C39.0759 41.2419 28.1279 54.1724 28.1279 70.1229C28.1279 86.0735 39.0759 99.0039 52.5809 99.0039Z" fill="#F0F0F0"/>
<path opacity="0.3" d="M504.166 222.98C498.678 224.894 486.578 226.304 473.272 227.171C459.972 228.03 445.382 228.407 430.976 228.77C405.759 229.413 380.545 230.058 355.332 230.705C351.866 230.796 348.389 230.88 344.9 230.956C343.155 229.594 341.41 228.211 339.684 226.8C342.777 226.821 345.87 226.8 348.939 226.731C362.05 226.423 373.15 225.215 385.794 224.642C405.251 223.755 426.257 224.454 446.536 224.81C466.814 225.173 489.92 225.04 504.166 222.98Z" fill="#F0F0F0"/>
<path opacity="0.3" d="M117.145 443.162L36.7627 364.073L114.853 446.33C115.004 446.63 115.214 446.884 115.464 447.07C115.715 447.256 116 447.369 116.295 447.399C116.591 447.429 116.887 447.375 117.162 447.243C117.436 447.11 117.679 446.902 117.871 446.636C118.064 446.37 118.2 446.054 118.268 445.713C118.336 445.373 118.335 445.018 118.264 444.678C118.193 444.339 118.054 444.024 117.86 443.76C117.665 443.496 117.42 443.291 117.145 443.162H117.145Z" fill="#F0F0F0"/>
<path d="M56.1288 143.639C57.5176 143.639 58.6434 142.31 58.6434 140.669C58.6434 139.029 57.5176 137.699 56.1288 137.699C54.7401 137.699 53.6143 139.029 53.6143 140.669C53.6143 142.31 54.7401 143.639 56.1288 143.639Z" fill="#F0F0F0"/>
<path d="M267.318 484.796L277.719 484.795L282.667 437.413L267.316 437.413L267.318 484.796Z" fill="#FFB6B6"/>
<path d="M264.665 480.785L267.593 480.785L279.022 475.295L285.148 480.784H285.149C288.611 480.784 291.931 482.409 294.379 485.3C296.827 488.191 298.202 492.112 298.202 496.201V496.702L264.666 496.703L264.665 480.785Z" fill="#2F2E41"/>
<path d="M189.427 484.796L179.026 484.795L174.078 437.413L189.429 437.413L189.427 484.796Z" fill="#FFB6B6"/>
<path d="M192.079 496.703L158.542 496.702V496.201C158.542 492.112 159.918 488.191 162.366 485.3C164.813 482.409 168.134 480.784 171.595 480.784H171.596L177.722 475.295L189.152 480.785L192.079 480.785L192.079 496.703Z" fill="#2F2E41"/>
<path d="M226.694 121.667L216.163 131.138L188.187 139.888C188.187 139.888 198.211 222.98 193.48 228.567C188.749 234.155 193.016 234.305 192.065 241.564C191.115 248.823 187.326 267.988 187.326 267.988H270.823C270.823 267.988 271.496 256.078 267.38 253.498C263.264 250.919 271.174 238.88 267.81 236.867C264.447 234.854 269.178 217.392 269.178 217.392L279.431 160.222L252.16 135.021L248.012 123.218L226.694 121.667Z" fill="#031B89"/>
<path d="M239.835 195.916C241.848 195.916 243.479 193.99 243.479 191.613C243.479 189.236 241.848 187.309 239.835 187.309C237.823 187.309 236.191 189.236 236.191 191.613C236.191 193.99 237.823 195.916 239.835 195.916Z" fill="#F2F2F2"/>
<path d="M187.327 267.989L183.883 372.705C183.883 372.705 169.017 450.048 171.599 452.081C174.182 454.114 175.275 466.239 175.275 466.239L189.909 468.272C189.909 468.272 189.909 460.139 193.352 457.089C196.795 454.039 228.645 310.689 228.645 310.689L259.716 449.287C259.716 449.287 260.494 457.089 263.076 457.089C265.659 457.089 266.52 468.272 266.52 468.272H281.153V457.089C281.153 457.089 287.728 454.626 285.146 446.493C282.563 438.36 270.823 267.989 270.823 267.989H187.327Z" fill="#2F2E41"/>
<path d="M237.631 115.426C247.376 115.426 255.277 106.095 255.277 94.5848C255.277 83.0743 247.376 73.7432 237.631 73.7432C227.885 73.7432 219.984 83.0743 219.984 94.5848C219.984 106.095 227.885 115.426 237.631 115.426Z" fill="#FFB6B6"/>
<path opacity="0.1" d="M267.811 188.18L271.254 191.23L272.975 176.997L267.811 188.18Z" fill="black"/>
<path d="M189.838 139.808C189.838 139.808 185.534 138.791 182.951 147.941C180.369 157.091 170.9 191.658 170.9 197.758C170.9 203.857 229.868 230.772 229.868 230.772L223.732 205.351L196.724 188.608L189.838 139.808Z" fill="#031B89"/>
<path d="M232.602 227.003C238.155 227.003 242.656 221.687 242.656 215.129C242.656 208.571 238.155 203.255 232.602 203.255C227.05 203.255 222.549 208.571 222.549 215.129C222.549 221.687 227.05 227.003 232.602 227.003Z" fill="#FFB6B6"/>
<path opacity="0.1" d="M195.937 176.015L196.724 188.608L221.699 204.09L199.485 186.492L195.937 176.015Z" fill="black"/>
<path d="M255.977 177.81H255.653V167.327C255.653 166.53 255.52 165.741 255.262 165.005C255.004 164.269 254.625 163.6 254.148 163.037C253.671 162.473 253.105 162.026 252.482 161.721C251.858 161.416 251.19 161.26 250.516 161.26H231.711C231.037 161.26 230.369 161.416 229.745 161.721C229.122 162.026 228.556 162.473 228.079 163.037C227.602 163.6 227.223 164.269 226.965 165.005C226.707 165.741 226.574 166.53 226.574 167.327V224.837C226.574 225.634 226.707 226.423 226.965 227.159C227.223 227.895 227.602 228.564 228.079 229.127C228.556 229.691 229.122 230.138 229.745 230.443C230.369 230.747 231.037 230.904 231.711 230.904H250.516C251.19 230.904 251.858 230.747 252.481 230.443C253.105 230.138 253.671 229.691 254.148 229.127C254.625 228.564 255.003 227.895 255.262 227.159C255.52 226.423 255.653 225.634 255.653 224.837V185.272H255.977V177.81Z" fill="#F0F0F0"/>
<path d="M279.431 160.222C279.431 160.222 282.014 162.255 283.735 171.405C285.457 180.555 296.647 215.122 292.343 223.255C288.039 231.388 286.768 240.069 272.135 227.869L251.886 205.972L266.519 189.705L272.545 194.788L279.431 160.222Z" fill="#031B89"/>
<path d="M241.343 186.892C243.72 186.892 245.647 184.616 245.647 181.809C245.647 179.001 243.72 176.725 241.343 176.725C238.966 176.725 237.039 179.001 237.039 181.809C237.039 184.616 238.966 186.892 241.343 186.892Z" fill="#031B89"/>
<path d="M253.802 204.819C259.354 204.819 263.855 199.503 263.855 192.945C263.855 186.387 259.354 181.071 253.802 181.071C248.249 181.071 243.748 186.387 243.748 192.945C243.748 199.503 248.249 204.819 253.802 204.819Z" fill="#FFB6B6"/>
<path opacity="0.1" d="M195.462 214.021L224.323 229.099L194.66 222.252L195.462 214.021Z" fill="black"/>
<path d="M219.827 98.7381L217.404 87.8475C216.772 85.0059 216.135 82.1069 216.277 79.1736C216.419 76.2404 217.472 73.2135 219.565 71.6244C221.657 70.0353 224.851 70.4107 226.197 72.8812C226.453 68.9364 229.492 65.902 232.716 64.8271C235.939 63.7521 239.362 64.1773 242.708 64.3586C246.055 64.54 249.587 64.4134 252.475 62.4089C252.695 63.1888 252.68 64.0346 252.434 64.8033C252.187 65.5721 251.723 66.2168 251.121 66.6286C251.839 66.86 252.604 66.7606 253.263 66.3506C253.921 65.9406 254.423 65.2505 254.667 64.4201C254.688 66.7047 253.974 68.9135 252.667 70.5983C253.913 69.8681 255.345 69.7115 256.684 70.1592C258.022 70.6069 259.172 71.6268 259.909 73.0204C261.383 76.0383 260.557 79.8284 259.695 83.1603L255.269 100.261C254.598 97.6612 254.471 94.9167 254.112 92.2322C253.753 89.5478 253.114 86.8064 251.614 84.7458C250.114 82.6853 247.565 81.4919 245.433 82.515C244.237 83.0891 243.325 84.2536 242.245 85.0894C240.03 86.8043 237.212 87.0503 234.579 86.7013C231.947 86.3523 229.381 85.467 226.749 85.1134C225.101 84.892 223.262 84.9506 222.019 86.247C221.164 87.2965 220.599 88.6283 220.4 90.0657C219.813 92.9308 219.582 95.8816 219.715 98.8252" fill="#2F2E41"/>
</g>
<defs>
<clipPath id="clip0_33_46">
<rect width="548" height="549" fill="white"/>
</clipPath>
</defs>
</svg>
