<svg width="23" height="22" viewBox="0 0 23 22" fill="none" xmlns="http://www.w3.org/2000/svg">
<path fill-rule="evenodd" clip-rule="evenodd" d="M9.00069 1.00089C9.00088 0.792343 8.93586 0.588952 8.81473 0.419184C8.6936 0.249416 8.52242 0.121767 8.32515 0.0541004C8.12789 -0.013566 7.9144 -0.0178636 7.71456 0.041809C7.51473 0.101482 7.33856 0.222138 7.21069 0.386894L0.210694 9.38689C0.0741394 9.56244 0 9.77849 0 10.0009C0 10.2233 0.0741394 10.4394 0.210694 10.6149L7.21069 19.6149C7.33856 19.7797 7.51473 19.9003 7.71456 19.96C7.9144 20.0197 8.12789 20.0154 8.32515 19.9477C8.52242 19.88 8.6936 19.7524 8.81473 19.5826C8.93586 19.4128 9.00088 19.2094 9.00069 19.0009V15.0109C14.3797 15.1229 16.9637 16.1439 18.2617 17.2539C19.4957 18.3089 19.7217 19.5499 19.9567 20.8499L20.0177 21.1849C20.0626 21.4246 20.1935 21.6397 20.3858 21.7896C20.5782 21.9395 20.8187 22.014 21.0621 21.999C21.3055 21.984 21.535 21.8806 21.7075 21.7082C21.88 21.5358 21.9836 21.3063 21.9987 21.0629C22.1697 18.3149 21.9127 14.3329 19.9717 11.0019C18.0877 7.76889 14.6947 5.28289 9.00069 5.02289V1.00089Z" fill="#6196FE"/>
</svg>
